<?xml version="1.0" encoding="UTF-8"?>
<svg id="Layer_2" data-name="Layer 2" xmlns="http://www.w3.org/2000/svg" viewBox="0 0 1454.42 584.87">
  <defs>
    <style>
      .cls-1 {
        fill: #fff;
      }

      .cls-2 {
        fill: #16bdff;
      }
    </style>
  </defs>
  <g id="Layer_1-2" data-name="Layer 1">
    <g>
      <path class="cls-1" d="M99.61,539.71c-13.99,0-27.05-2.44-39.18-7.31-12.13-4.87-22.67-11.69-31.61-20.45-8.94-8.77-15.98-19.13-21.12-31.08-5.14-11.95-7.7-25.1-7.7-39.45s2.56-27.49,7.7-39.45c5.13-11.95,12.17-22.31,21.12-31.08,8.94-8.77,19.48-15.58,31.61-20.45,12.13-4.87,25.19-7.31,39.18-7.31,9.56,0,18.24.98,26.03,2.92,7.79,1.95,14.78,4.52,20.99,7.7,6.2,3.19,11.64,6.82,16.34,10.89,4.69,4.08,8.72,8.23,12.09,12.48,7.97,9.92,13.81,21.16,17.53,33.74h-30.55c-3.19-7.08-7.62-13.46-13.28-19.13-4.78-4.78-11.16-9.21-19.13-13.28-7.97-4.07-17.98-6.11-30.02-6.11-9.92,0-19.04,1.69-27.36,5.05-8.33,3.37-15.5,8.06-21.52,14.08s-10.67,13.28-13.95,21.78c-3.28,8.5-4.91,17.89-4.91,28.16s1.64,19.66,4.91,28.16c3.27,8.5,7.92,15.76,13.95,21.78,6.02,6.02,13.19,10.72,21.52,14.08,8.32,3.37,17.44,5.05,27.36,5.05,12.22,0,22.4-2.21,30.55-6.64,8.14-4.42,14.7-9.3,19.66-14.61,5.84-6.2,10.36-13.28,13.55-21.25h30.55c-4.43,13.46-10.89,25.41-19.39,35.86-3.54,4.61-7.7,9.03-12.48,13.28-4.78,4.25-10.23,8.06-16.34,11.42-6.11,3.37-13.02,6.06-20.72,8.1-7.7,2.03-16.16,3.06-25.37,3.06Z"/>
      <path class="cls-1" d="M281.57,537.05c-9.92,0-19.17-1.82-27.76-5.45-8.59-3.63-16.03-8.59-22.31-14.88-6.29-6.28-11.25-13.72-14.88-22.31-3.63-8.59-5.45-17.84-5.45-27.76s1.81-19.17,5.45-27.76c3.63-8.59,8.59-16.03,14.88-22.31s13.72-11.24,22.31-14.88c8.59-3.63,17.84-5.45,27.76-5.45s19.17,1.82,27.76,5.45c8.59,3.63,16.03,8.59,22.31,14.88,6.28,6.29,11.24,13.73,14.88,22.31,3.63,8.59,5.45,17.84,5.45,27.76s-1.82,19.17-5.45,27.76c-3.63,8.59-8.59,16.03-14.88,22.31s-13.73,11.25-22.31,14.88c-8.59,3.63-17.84,5.45-27.76,5.45ZM281.57,511.82c6.02,0,11.56-1.06,16.6-3.19,5.05-2.12,9.38-5.13,13.02-9.03,3.63-3.89,6.46-8.63,8.5-14.21,2.03-5.58,3.05-11.82,3.05-18.73s-1.02-13.15-3.05-18.73c-2.04-5.58-4.87-10.31-8.5-14.21-3.63-3.89-7.97-6.91-13.02-9.03-5.05-2.12-10.58-3.19-16.6-3.19s-11.56,1.06-16.6,3.19c-5.05,2.12-9.39,5.14-13.02,9.03-3.63,3.9-6.47,8.63-8.5,14.21-2.04,5.58-3.05,11.82-3.05,18.73s1.02,13.15,3.05,18.73c2.03,5.58,4.87,10.32,8.5,14.21,3.63,3.9,7.97,6.91,13.02,9.03,5.05,2.13,10.58,3.19,16.6,3.19Z"/>
      <path class="cls-1" d="M580.19,382.57c-3.96-4.07-8.56-7.29-13.81-9.64-7.2-3.23-15.61-4.84-25.24-4.84h-18.59c-9.63,0-18.04,1.61-25.24,4.84-5.25,2.35-9.85,5.57-13.81,9.64-9.39,9.65-14.08,23.86-14.08,42.63v80.63c-.06,11.85-2.71,20.49-7.96,25.93-5.31,5.49-13.28,8.24-23.91,8.24h-5.31c-10.63,0-18.59-2.75-23.91-8.24-5.31-5.49-7.97-14.25-7.97-26.3v-78.36h-27.89v81.02c0,18.77,4.69,32.98,14.08,42.63,3.96,4.07,8.56,7.29,13.81,9.64,7.2,3.23,15.61,4.84,25.24,4.84h18.59c9.63,0,18.04-1.61,25.24-4.84,5.25-2.35,9.85-5.57,13.81-9.64,9.39-9.65,14.08-23.86,14.08-42.63v-80.63c.06-11.85,2.71-20.49,7.96-25.93,5.31-5.49,13.28-8.24,23.91-8.24h5.31c10.63,0,18.59,2.75,23.91,8.24,5.31,5.49,7.97,14.25,7.97,26.3v78.36h27.89v-81.02c0-18.77-4.69-32.98-14.08-42.63Z"/>
      <path class="cls-1" d="M843.22,473.47c-1.64-3.66-3.92-6.92-6.77-9.7-6.62-6.44-16.18-9.71-28.43-9.71h-1.96s-50.56,0-50.56,0c-5.13,0-8.86-.98-10.78-2.85-1.9-1.83-2.86-4.96-2.86-9.28v-3.02c0-4.32.96-7.45,2.86-9.28,1.92-1.86,5.65-2.84,10.78-2.84h50.56v-27.86h-52.07c-12.24,0-21.81,3.27-28.43,9.71-2.86,2.78-5.14,6.04-6.77,9.7-2.18,4.85-3.28,10.5-3.28,16.81v10.57c0,6.31,1.1,11.96,3.28,16.8,1.64,3.66,3.92,6.92,6.77,9.7,6.62,6.44,16.18,9.71,28.43,9.71h1.96s50.56,0,50.56,0c5.13,0,8.86.98,10.78,2.85,1.9,1.83,2.86,4.96,2.86,9.28v3.02c0,4.32-.96,7.45-2.86,9.28-1.92,1.86-5.65,2.85-10.78,2.85h-50.56v27.86h52.07c12.24,0,21.81-3.27,28.43-9.71,2.86-2.78,5.14-6.04,6.77-9.7,2.17-4.85,3.28-10.5,3.28-16.81v-10.57c0-6.3-1.1-11.96-3.28-16.8Z"/>
      <path class="cls-1" d="M628.7,424.16h-15.94v-25.24h15.94v-29.22h27.89v29.22h41.17v25.24h-41.17v85h42.5v25.24h-70.39v-110.24Z"/>
      <path class="cls-1" d="M995.29,444.35c-.99-2.89-2.19-5.75-3.58-8.6-4.35-8.9-10.05-16.42-17.09-22.55-7.03-6.11-14.75-10.62-23.16-13.51-8.41-2.88-17.27-4.07-26.59-3.57-9.16.52-18.13,2.87-26.9,7.1-.21.1-.42.19-.62.29-8.83,4.35-16.28,10.01-22.35,16.98-6.13,7.05-10.63,14.77-13.52,23.17-2.89,8.41-4.08,17.28-3.56,26.57.32,6.15,1.5,12.21,3.51,18.18.16.46.31.92.48,1.37.33.92.69,1.84,1.05,2.75.68,1.68,1.43,3.36,2.25,5.03s1.68,3.3,2.59,4.87c.49.85,1,1.7,1.52,2.52.26.41.52.81.78,1.22,3.48,5.26,7.54,9.91,12.19,13.94,7.02,6.13,14.75,10.63,23.16,13.51,8.41,2.89,17.27,4.08,26.59,3.57,8.72-.48,17.29-2.64,25.66-6.5.16-.07.32-.14.47-.22l.17-.08c5.8-2.85,10.86-6.01,15.21-9.49,0,0,.02-.02.03-.03.29-.23.58-.46.86-.71,2.69-2.26,5.18-4.71,7.47-7.35,6.12-7.03,10.63-14.76,13.52-23.17,2.88-8.4,4.07-17.26,3.56-26.57-.02-.43-.05-.86-.09-1.29l-27.88,13.63c-.23,2.71-.74,5.32-1.5,7.84-1.55,5.1-4.13,9.71-7.72,13.83-2.21,2.54-4.76,4.79-7.65,6.76-1.82,1.24-3.78,2.38-5.86,3.4-.19.09-.37.18-.56.26-5.23,2.49-10.47,3.87-15.76,4.16-5.46.31-10.69-.49-15.65-2.4-4.98-1.9-9.6-4.91-13.88-9.03-2.27-2.19-4.36-4.66-6.29-7.42l99.13-48.45ZM886.94,472.17c-.44-1.88-.75-3.75-.95-5.6-.62-5.9-.16-11.4,1.4-16.5,1.54-5.08,4.13-9.7,7.72-13.83,3.47-3.97,7.77-7.26,12.92-9.86.19-.11.4-.21.6-.3,5.4-2.64,10.85-4.11,16.31-4.42,5.46-.3,10.68.5,15.65,2.4,4.97,1.91,9.61,4.92,13.88,9.03,1.34,1.29,2.63,2.69,3.84,4.19l-71.38,34.89Z"/>
      <path class="cls-1" d="M1179.49,348.45h27.89v160.71h30.55v25.24h-58.44v-185.95Z"/>
      <path class="cls-1" d="M1256.52,348.45h27.89v160.71h30.55v25.24h-58.44v-185.95Z"/>
      <path class="cls-1" d="M1385.35,534.4h-27.89l-37.19-135.48h29.22l29.22,108.91h14.61l31.88-108.91h29.22l-55.78,185.95h-29.22l15.94-50.47Z"/>
      <path class="cls-1" d="M1152.93,466.66c0-9.92-1.82-19.17-5.45-27.76-3.63-8.59-8.59-16.03-14.88-22.31-6.29-6.28-13.73-11.24-22.31-14.88-8.59-3.63-17.84-5.45-27.76-5.45s-19.17,1.82-27.76,5.45c-8.59,3.63-16.03,8.59-22.31,14.88s-11.25,13.73-14.88,22.31c-3.63,8.59-5.45,17.84-5.45,27.76s1.81,19.17,5.45,27.76c3.63,8.59,8.59,16.03,14.88,22.31,6.28,6.29,13.72,11.25,22.31,14.88,8.59,3.63,17.84,5.45,27.76,5.45s19.17-1.82,27.76-5.45c5.36-2.27,10.28-5.05,14.75-8.36v13.8h27.89v-69.91h-.01c0-.16.01-.32.01-.49ZM1120.65,485.38c-2.04,5.58-4.87,10.32-8.5,14.21-3.63,3.9-7.97,6.91-13.02,9.03-5.05,2.13-10.58,3.19-16.6,3.19s-11.56-1.06-16.6-3.19c-5.05-2.12-9.39-5.13-13.02-9.03-3.63-3.89-6.47-8.63-8.5-14.21-2.04-5.58-3.05-11.82-3.05-18.73s1.02-13.15,3.05-18.73c2.03-5.58,4.87-10.31,8.5-14.21,3.63-3.89,7.97-6.91,13.02-9.03,5.05-2.12,10.58-3.19,16.6-3.19s11.56,1.06,16.6,3.19c5.05,2.12,9.38,5.14,13.02,9.03,3.63,3.9,6.46,8.63,8.5,14.21,2.03,5.58,3.05,11.82,3.05,18.73s-1.02,13.15-3.05,18.73Z"/>
      <path class="cls-1" d="M643.85,41.7c4.89-4.89,10.02-8.58,15.4-11.09,5.39-2.5,10.74-3.85,16.06-4.04,5.32-.19,10.52.75,15.59,2.82,5.08,2.06,9.74,5.23,13.99,9.48,4.26,4.26,7.42,8.92,9.48,13.99,2.07,5.07,3.01,10.27,2.82,15.59-.18,5.32-1.53,10.68-4.04,16.06-2.5,5.39-6.2,10.51-11.09,15.4l20.66,20.66c7.01-7.01,12.28-14.84,15.78-23.48,3.51-8.64,5.26-17.41,5.25-26.3,0-8.89-1.75-17.66-5.25-26.3-3.51-8.64-8.77-16.46-15.78-23.48s-14.84-12.28-23.48-15.78S681.86,0,672.96,0c-8.89,0-17.66,1.75-26.3,5.25-8.64,3.51-16.46,8.77-23.48,15.78l20.66,20.66Z"/>
      <path class="cls-1" d="M830.82,297.68l-.59-37.87-37.87-.59,8.9,8.9c-4.79,4.73-9.81,8.32-15.07,10.77-5.39,2.5-10.74,3.85-16.06,4.04-5.32.19-10.52-.75-15.59-2.82-5.08-2.06-9.74-5.23-13.99-9.48-4.26-4.26-7.42-8.92-9.48-13.99-2.07-5.07-3.01-10.27-2.82-15.59.18-5.32,1.53-10.68,4.04-16.06,2.5-5.39,6.2-10.51,11.09-15.4l-20.66-20.66c-7.01,7.01-12.28,14.84-15.78,23.48-3.51,8.64-5.26,17.41-5.25,26.3,0,8.89,1.75,17.66,5.25,26.3,3.51,8.64,8.77,16.46,15.78,23.48,7.01,7.01,14.83,12.28,23.48,15.78s17.4,5.25,26.3,5.25c8.89,0,17.66-1.75,26.3-5.25,8.51-3.45,16.22-8.61,23.15-15.47l8.9,8.9Z"/>
      <path class="cls-2" d="M852.18,146c-2.81-7.38-7.62-14.46-14.42-21.27l-13.15-13.15c-6.81-6.81-13.89-11.62-21.27-14.42-5.37-2.05-10.9-3.03-16.58-2.95-13.46.18-26.83,6.92-40.1,20.19l-57.01,57.01c-8.42,8.34-16.41,12.57-23.96,12.7-7.64.13-15.22-3.56-22.73-11.08l-3.75-3.75c-7.52-7.52-11.2-15.09-11.08-22.73.13-7.64,4.44-15.71,12.96-24.23l41.69-41.69,9.42,9.42-.59-37.87-37.87-.59,9.32,9.32-43.58,43.58c-13.27,13.27-20,26.64-20.19,40.1-.08,5.68.9,11.21,2.95,16.58,2.81,7.38,7.62,14.46,14.43,21.27l13.15,13.15c6.81,6.81,13.89,11.62,21.27,14.42,5.37,2.05,10.9,3.03,16.58,2.95,13.46-.18,26.83-6.92,40.1-20.19l57.01-57.01c8.42-8.34,16.41-12.57,23.96-12.7,7.64-.13,15.22,3.56,22.73,11.08l3.75,3.75c7.52,7.52,11.2,15.09,11.08,22.73-.13,7.64-4.44,15.71-12.96,24.23l-55.41,55.41,19.72,19.72,57.29-57.29c13.27-13.27,20-26.64,20.19-40.1.08-5.68-.9-11.21-2.95-16.58Z"/>
    </g>
  </g>
</svg>